<?xml version="1.0" encoding="UTF-8" standalone="no"?>
<svg
   xmlns:dc="http://purl.org/dc/elements/1.1/"
   xmlns:cc="http://creativecommons.org/ns#"
   xmlns:rdf="http://www.w3.org/1999/02/22-rdf-syntax-ns#"
   xmlns:svg="http://www.w3.org/2000/svg"
   xmlns="http://www.w3.org/2000/svg"
   version="1.1"
   id="svg5679"
   viewBox="0 0 40 40"
   height="11.288889mm"
   width="11.288889mm">
  <defs
     id="defs5681" />
  <metadata
     id="metadata5684">
    <rdf:RDF>
      <cc:Work
         rdf:about="">
        <dc:format>image/svg+xml</dc:format>
        <dc:type
           rdf:resource="http://purl.org/dc/dcmitype/StillImage" />
        <dc:title></dc:title>
      </cc:Work>
    </rdf:RDF>
  </metadata>
  <g
     transform="translate(34.285714,-272.3622)"
     id="layer1">
    <path
       id="path4713"
       d="m -14.286224,272.3622 a 20.000027,20.000027 0 0 0 -19.99949,20.00051 20.000027,20.000027 0 0 0 19.99949,19.99949 20.000027,20.000027 0 0 0 20.00051,-19.99949 20.000027,20.000027 0 0 0 -20.00051,-20.00051 z m 7.22721,8.59796 c 0.86111,0 1.02497,0.0257 1.45827,0.22896 0.2685,0.12594 0.63697,0.35889 0.81817,0.51798 0.38898,0.34152 0.82015,1.03669 0.70828,1.14178 -0.0429,0.0402 -0.29164,0.16462 -0.55359,0.27578 l -0.47626,0.20149 -0.14043,-0.19946 c -0.60583,-0.86258 -1.0691,-1.11331 -1.94164,-1.05019 -0.72988,0.0528 -1.18852,0.37536 -1.54273,1.08377 l -0.26458,0.52816 0,1.93655 c 0,1.91077 0.003,1.94361 0.23303,2.43416 0.28506,0.608 0.81631,0.96645 1.51933,1.02476 1.32192,0.10962 2.23752,-0.84707 2.14822,-2.24387 l -0.0275,-0.42232 -0.85786,-0.0254 -0.85888,-0.0254 0,-0.5709 0,-0.57089 1.51932,0.0244 1.51831,0.0234 0.0275,0.96878 c 0.0595,2.12374 -0.53317,3.31537 -1.90705,3.83544 -0.65359,0.24743 -1.74129,0.30345 -2.39041,0.12314 -0.99732,-0.27705 -1.64247,-0.86925 -2.03323,-1.86532 -0.1796,-0.45781 -0.20353,-0.69471 -0.23608,-2.35785 -0.0392,-2.00083 0.0267,-2.60454 0.36329,-3.33987 0.3012,-0.6579 0.69818,-1.06347 1.36159,-1.39007 0.55331,-0.2724 0.63702,-0.28698 1.55493,-0.28698 z m -11.19698,5.55117 c 0.76389,0.006 1.30337,0.0236 1.51626,0.0498 2.11865,0.26158 3.61635,1.32588 4.11327,2.92366 0.27184,0.87412 0.2693,1.99553 -0.006,2.80255 -0.5191,1.52107 -1.62435,2.58477 -3.42534,3.29509 -0.19211,0.0758 -0.17478,0.11561 0.58311,1.32801 1.46796,2.34838 3.42352,4.75185 4.38293,5.38733 0.39755,0.26333 0.90492,0.4761 1.37176,0.57598 0.2134,0.0457 0.2422,0.0919 0.2422,0.39178 0,0.27792 -0.0356,0.35023 -0.19742,0.39485 -0.2832,0.0781 -1.38342,0.13435 -1.69537,0.0865 l 0,0.001 c -0.97228,-0.14915 -1.83053,-0.54068 -2.49116,-1.13465 -0.81334,-0.73127 -2.4764,-3.0843 -3.93315,-5.56644 l -0.68385,-1.16621 -1.05121,0 -1.05019,0 0.0275,2.88295 c 0.0251,2.63748 0.0423,2.91199 0.19742,3.22487 0.20924,0.42163 0.63797,0.626 1.49592,0.71336 0.81722,0.0832 0.84259,0.0981 0.84259,0.48032 l 0,0.32869 -3.39278,-0.003 -3.39379,-0.002 0.0265,-0.34905 0.0265,-0.35007 0.7154,-0.14247 c 0.82311,-0.16373 0.96087,-0.25427 1.21301,-0.79782 0.17963,-0.38724 0.18486,-0.52863 0.21168,-6.29404 0.0278,-5.96828 -0.0114,-6.98564 -0.29105,-7.5264 -0.17512,-0.33866 -0.50321,-0.50232 -1.27102,-0.63398 l -0.62279,-0.10685 0,-0.36432 0,-0.36431 3.67568,-0.0519 c 1.11102,-0.0155 2.09972,-0.0195 2.86362,-0.0132 z m -2.31308,1.1662 0,3.4803 0,3.48131 0.41826,0.0325 c 0.99725,0.0787 2.04494,0.052 2.59801,-0.0651 1.52799,-0.32379 2.50827,-1.29091 2.79746,-2.76083 0.3473,-1.76526 -0.41239,-3.30433 -1.92638,-3.90159 -0.43985,-0.17352 -0.69729,-0.20014 -2.19299,-0.23101 l -1.69436,-0.0357 z"
       clip-path="none"
       mask="none"
       style="opacity:1;fill:#ffffff;fill-opacity:1;stroke:none;stroke-width:3.25;stroke-linecap:round;stroke-linejoin:round;stroke-miterlimit:4;stroke-dasharray:none;stroke-dashoffset:0;stroke-opacity:1" />
  </g>
</svg>
