<?xml version="1.0" encoding="UTF-8" standalone="no"?>
<!-- Created with Inkscape (http://www.inkscape.org/) -->

<svg
   xmlns:dc="http://purl.org/dc/elements/1.1/"
   xmlns:cc="http://creativecommons.org/ns#"
   xmlns:rdf="http://www.w3.org/1999/02/22-rdf-syntax-ns#"
   xmlns:svg="http://www.w3.org/2000/svg"
   xmlns="http://www.w3.org/2000/svg"
   xmlns:sodipodi="http://sodipodi.sourceforge.net/DTD/sodipodi-0.dtd"
   xmlns:inkscape="http://www.inkscape.org/namespaces/inkscape"
   width="11.288889mm"
   height="11.288889mm"
   viewBox="0 0 40 40"
   id="svg5679"
   version="1.1"
   inkscape:version="0.91 r13725"
   sodipodi:docname="icon-academia.svg"
   inkscape:export-filename="D:\Dropbox\dev\crossveins\assets\images\icon-academia.png"
   inkscape:export-xdpi="90"
   inkscape:export-ydpi="90">
  <defs
     id="defs5681" />
  <sodipodi:namedview
     id="base"
     pagecolor="#ffffff"
     bordercolor="#666666"
     borderopacity="1.0"
     inkscape:pageopacity="0.0"
     inkscape:pageshadow="2"
     inkscape:zoom="8.9"
     inkscape:cx="20"
     inkscape:cy="20"
     inkscape:document-units="px"
     inkscape:current-layer="layer1"
     showgrid="false"
     fit-margin-top="0"
     fit-margin-left="0"
     fit-margin-right="0"
     fit-margin-bottom="0"
     inkscape:window-width="775"
     inkscape:window-height="738"
     inkscape:window-x="1395"
     inkscape:window-y="416"
     inkscape:window-maximized="0" />
  <metadata
     id="metadata5684">
    <rdf:RDF>
      <cc:Work
         rdf:about="">
        <dc:format>image/svg+xml</dc:format>
        <dc:type
           rdf:resource="http://purl.org/dc/dcmitype/StillImage" />
        <dc:title></dc:title>
      </cc:Work>
    </rdf:RDF>
  </metadata>
  <g
     inkscape:label="Layer 1"
     inkscape:groupmode="layer"
     id="layer1"
     transform="translate(34.285714,-272.3622)">
    <path
       style="opacity:1;fill:#ffffff;fill-opacity:1;stroke:none;stroke-width:3.25;stroke-linecap:round;stroke-linejoin:round;stroke-miterlimit:4;stroke-dasharray:none;stroke-dashoffset:0;stroke-opacity:1"
       d="m -14.285714,272.3622 a 20.000199,20.000199 0 0 0 -20,20 20.000199,20.000199 0 0 0 20,20 20.000199,20.000199 0 0 0 20.0000002,-20 20.000199,20.000199 0 0 0 -20.0000002,-20 z m -4.33304,8.12927 6.43444,0 8.3241602,21.31344 c 0.15683,0.3442 0.5830699,0.69135 1.0978199,0.89355 0.7068,0.27764 0.84174,0.42688 0.84174,0.93252 l 0,0.60195 -11.2026601,0 0,-0.62119 c 0,-0.57679 0.0699,-0.63137 0.97939,-0.76773 1.99231,-0.29876 2.2887402,-1.56858 0.98237,-4.20871 l -0.78599,-1.58875 -8.50722,0 -0.57234,1.63809 c -1.0915,3.12501 -1.09799,3.15822 -0.68089,3.6191 0.2239,0.24741 0.79439,0.47217 1.41507,0.55754 0.97427,0.134 1.04009,0.18188 1.04009,0.75736 l 0,0.61429 -7.39756,0 0,-0.64142 c 0,-0.55598 0.12295,-0.69469 0.92069,-1.03663 0.50633,-0.21706 0.96801,-0.52278 1.02627,-0.67942 l 7.15974,-18.72555 -1.07512,-2.65844 z m 2.3999,5.78019 -3.06254,8.20378 6.36981,0 -3.30727,-8.20378 z"
       id="path5490"
       inkscape:connector-curvature="0" />
  </g>
</svg>
