<?xml version="1.0" encoding="UTF-8" standalone="no"?>
<svg
   xmlns:dc="http://purl.org/dc/elements/1.1/"
   xmlns:cc="http://creativecommons.org/ns#"
   xmlns:rdf="http://www.w3.org/1999/02/22-rdf-syntax-ns#"
   xmlns:svg="http://www.w3.org/2000/svg"
   xmlns="http://www.w3.org/2000/svg"
   version="1.1"
   id="svg5679"
   viewBox="0 0 40 40"
   height="11.288889mm"
   width="11.288889mm">
  <defs
     id="defs5681" />
  <metadata
     id="metadata5684">
    <rdf:RDF>
      <cc:Work
         rdf:about="">
        <dc:format>image/svg+xml</dc:format>
        <dc:type
           rdf:resource="http://purl.org/dc/dcmitype/StillImage" />
        <dc:title></dc:title>
      </cc:Work>
    </rdf:RDF>
  </metadata>
  <g
     transform="translate(94.285714,-98.07649)"
     id="layer1">
    <path
       style="fill:#ffffff;fill-opacity:1"
       id="path5"
       d="m -54.285714,118.07649 c 0,11.05 -8.95,20 -20,20 -11.05,0 -20,-8.95 -20,-20 0,-11.05 8.95,-20 20,-20 11.05,0 20,8.95 20,20 z m -23.66,10.55 c 8.87,0 13.72,-7.35 13.72,-13.72 0,-0.21 0,-0.42 -0.0103,-0.62 0.94,-0.68 1.76,-1.53 2.41,-2.5 -0.86,0.38 -1.79,0.64 -2.77,0.76 1,-0.6 1.76,-1.54 2.12,-2.67 -0.93,0.55 -1.96,0.95 -3.06,1.17 -0.88,-0.94 -2.13,-1.52 -3.52,-1.52 -2.66,0 -4.82,2.16 -4.82,4.82 0,0.38 0.04,0.75 0.13,1.1 -4.01,-0.2 -7.56,-2.12 -9.94,-5.04 -0.41,0.71 -0.65,1.54 -0.65,2.42 0,1.67 0.85,3.15 2.15,4.01 -0.79,-0.02 -1.53,-0.24 -2.18,-0.6 0,0.02 0,0.04 0,0.06 0,2.34 1.66,4.28 3.87,4.73 -0.4,0.11 -0.83,0.17 -1.27,0.17 -0.31,0 -0.61,-0.0299 -0.91,-0.0901 0.61,1.92 2.39,3.31 4.5,3.35 -1.65,1.29 -3.73,2.06 -5.99,2.06 -0.39,0 -0.77,-0.02 -1.15,-0.07 2.11,1.38 4.65,2.18 7.37,2.18"
       class="st0" />
  </g>
</svg>
