<?xml version="1.0" encoding="UTF-8" standalone="no"?>
<svg
   xmlns:dc="http://purl.org/dc/elements/1.1/"
   xmlns:cc="http://creativecommons.org/ns#"
   xmlns:rdf="http://www.w3.org/1999/02/22-rdf-syntax-ns#"
   xmlns:svg="http://www.w3.org/2000/svg"
   xmlns="http://www.w3.org/2000/svg"
   version="1.1"
   id="svg5679"
   viewBox="0 0 40 40"
   height="11.288889mm"
   width="11.288889mm">
  <defs
     id="defs5681" />
  <metadata
     id="metadata5684">
    <rdf:RDF>
      <cc:Work
         rdf:about="">
        <dc:format>image/svg+xml</dc:format>
        <dc:type
           rdf:resource="http://purl.org/dc/dcmitype/StillImage" />
        <dc:title></dc:title>
      </cc:Work>
    </rdf:RDF>
  </metadata>
  <g
     transform="translate(34.285714,-272.3622)"
     id="layer1">
    <path
       id="path106"
       style="fill:#ffffff;fill-opacity:1;fill-rule:evenodd;stroke:none"
       d="m -14.287759,272.3622 c -11.0426,0 -19.99797,8.95414 -19.99797,20.0004 0,8.83628 5.72997,16.33185 13.67738,18.97645 1.0006,0.18418 1.36529,-0.43339 1.36529,-0.96378 0,-0.47516 -0.0167,-1.73239 -0.0265,-3.40094 -5.56308,1.20813 -6.73683,-2.68145 -6.73683,-2.68145 -0.90974,-2.31067 -2.22099,-2.92579 -2.22099,-2.92579 -1.81592,-1.24004 0.13751,-1.2155 0.13751,-1.2155 2.00736,0.14119 3.06324,2.06144 3.06324,2.06144 1.78401,3.05592 4.68156,2.17315 5.82092,1.66117 0.18171,-1.2916 0.69855,-2.17315 1.26953,-2.67286 -4.44091,-0.50461 -9.11007,-2.22103 -9.11007,-9.88479 0,-2.18299 0.77958,-3.9694 2.0589,-5.3666 -0.20625,-0.50583 -0.89253,-2.54026 0.19646,-5.29292 0,0 1.67841,-0.53776 5.49924,2.05038 1.59483,-0.44446 3.30634,-0.66545 5.00684,-0.67405 1.69925,0.009 3.40949,0.22959 5.00686,0.67405 3.81837,-2.58814 5.49425,-2.05038 5.49425,-2.05038 1.09153,2.75266 0.40515,4.78709 0.20016,5.29292 1.2818,1.3972 2.0553,3.18361 2.0553,5.3666 0,7.68339 -4.67664,9.37404 -9.131,9.86884 0.71703,0.61756 1.35675,1.83798 1.35675,3.70295 0,2.6741 -0.0246,4.83129 -0.0246,5.48693 0,0.53529 0.36096,1.15778 1.37511,0.96256 7.94121998,-2.65076 13.6662801,-10.1414 13.6662801,-18.97523 0,-11.04626 -8.9553701,-20.0004 -20.0016101,-20.0004" />
  </g>
</svg>
