<?xml version="1.0" encoding="UTF-8" standalone="no"?>
<svg
   xmlns:dc="http://purl.org/dc/elements/1.1/"
   xmlns:cc="http://creativecommons.org/ns#"
   xmlns:rdf="http://www.w3.org/1999/02/22-rdf-syntax-ns#"
   xmlns:svg="http://www.w3.org/2000/svg"
   xmlns="http://www.w3.org/2000/svg"
   version="1.1"
   id="svg5679"
   viewBox="0 0 40 40"
   height="11.288889mm"
   width="11.288889mm">
  <defs
     id="defs5681" />
  <metadata
     id="metadata5684">
    <rdf:RDF>
      <cc:Work
         rdf:about="">
        <dc:format>image/svg+xml</dc:format>
        <dc:type
           rdf:resource="http://purl.org/dc/dcmitype/StillImage" />
        <dc:title></dc:title>
      </cc:Work>
    </rdf:RDF>
  </metadata>
  <g
     transform="translate(34.285714,-272.3622)"
     id="layer1">
    <path
       id="path5595"
       d="m -14.285714,272.3622 a 20,20 0 0 0 -20,20 20,20 0 0 0 20,20 20,20 0 0 0 20.0000001,-20 20,20 0 0 0 -20.0000001,-20 z m 6.5805205,4.8137 c 0.8502,0.0219 1.46794,0.21022 2.13542,0.65505 0.29842,0.19887 0.7352796,0.63426 0.9695496,0.96354 0.19933,0.28015 0.51289,0.89203 0.64303,1.25601 0.19061,0.53308 0.34319,1.23836 0.42268,1.95714 0.0513,0.46374 0.0443,1.99044 -0.012,2.55408 -0.0409,0.40981 -0.16815,1.33062 -0.22035,1.60056 -0.0122,0.0629 -0.0182,0.11809 -0.014,0.1222 0.004,0.004 0.18153,0.0727 0.39662,0.15424 1.91628,0.72617 3.48556998,1.65882 4.50721,2.68029 0.16963,0.16958 0.3858,0.40605 0.48078,0.52484 1.139,1.42526 1.35883,2.95914 0.63702,4.44111 -0.14028,0.28799 -0.43536,0.74707 -0.63102,0.98357 -0.76882002,0.92932 -1.86568002,1.75098 -3.29326,2.46595 -0.63478,0.3179 -1.04965,0.49704 -2.00721,0.86338 -0.0613,0.0235 -0.0872,0.0479 -0.0841,0.0801 0.003,0.0256 0.0349,0.22913 0.0702,0.45273 0.1443,0.91508 0.18957,1.42979 0.20834,2.32572 0.0255,1.21781 -0.0755,2.11694 -0.33854,3.02284 -0.54564,1.87934 -1.7320296,3.0069 -3.4134596,3.24319 -0.38166,0.0536 -1.05572,0.0365 -1.48037,-0.0381 -1.5902805,-0.27933 -3.2674705,-1.14012 -5.1221905,-2.6262 -0.29555,-0.23686 -0.45097,-0.34381 -0.47076,-0.32852 -0.0162,0.0125 -0.15476,0.12621 -0.30849,0.2524 -0.42443,0.34838 -0.97909,0.75762 -1.42629,1.05369 -1.4893,0.98601 -2.91801,1.56623 -4.17267,1.69471 -0.24573,0.0256 -0.74091,0.0306 -0.94352,0.0102 -0.97671,-0.0989 -1.84721,-0.52149 -2.46594,-1.19792 -0.68859,-0.75277 -1.15075,-1.84171 -1.34415,-3.16706 -0.0803,-0.55016 -0.10215,-0.91031 -0.10215,-1.64063 -2.3e-4,-0.91249 0.0513,-1.57474 0.1923,-2.47596 0.035,-0.2236 0.0689,-0.45797 0.0761,-0.52084 l 0.014,-0.11417 -0.33854,-0.12421 c -0.88985,-0.32532 -1.92332,-0.81641 -2.6883,-1.27604 -2.03463,-1.22246 -3.19062,-2.66878 -3.38142,-4.22877 -0.0385,-0.31466 -0.0151,-0.88325 0.05,-1.18589 0.11096,-0.51537 0.34112,-1.05523 0.63903,-1.5004 0.9745,-1.45627 2.80687,-2.71766 5.32251,-3.66586 0.19566,-0.0737 0.36409,-0.14298 0.37661,-0.15426 0.0132,-0.0119 -0.005,-0.19406 -0.0441,-0.43468 -0.17274,-1.07123 -0.22885,-1.84554 -0.21233,-2.89464 0.0136,-0.8667 0.0471,-1.23753 0.17027,-1.85296 0.23703,-1.18382 0.6595,-2.08073 1.29607,-2.7524 0.56497,-0.59612 1.21453,-0.94675 2.02725,-1.09777 0.34221,-0.0636 1.11469,-0.0771 1.50441,-0.026 1.67346,0.21939 3.52305,1.13933 5.47074,2.72436 l 0.32252,0.26443 0.28646,-0.23839 c 1.39535,-1.16101 2.9145,-2.0515 4.2387805,-2.48397 0.76641,-0.25034 1.3417,-0.33887 2.05729,-0.32051 z m -0.1883,1.53045 c -0.71632,-0.004 -1.55114,0.22436 -2.4919905,0.6851 -0.83105,0.40699 -1.63083,0.9253 -2.49799,1.62059 l -0.28446,0.22837 0.47476,0.48477 c 0.83778,0.85293 1.58918,1.72283 2.38382,2.76041 0.16588,0.21662 0.30146,0.39556 0.30248,0.39864 10e-4,0.002 0.2366005,0.0353 0.5228405,0.0721 1.14619,0.14762 2.52701,0.40805 3.57972,0.67508 0.3274,0.0831 0.6018,0.15508 0.60898,0.16226 0.0201,0.0202 0.054,0.0155 0.054,-0.008 0,-0.0119 0.0238,-0.17398 0.0521,-0.35857 0.2081596,-1.3583 0.2343996,-2.72895 0.0721,-3.72396 -0.1646796,-1.00968 -0.5045396,-1.78411 -1.0015996,-2.28766 -0.46257,-0.46863 -1.05852,-0.70511 -1.77484,-0.70913 z m -12.9587405,0.004 c -0.19305,0.0103 -0.37703,0.0374 -0.54887,0.0841 -0.39105,0.10625 -0.81846,0.35999 -1.09775,0.65105 -0.4718,0.49161 -0.80777,1.28278 -0.97156,2.28365 -0.16305,0.99605 -0.13023,2.42329 0.0862,3.73398 0.0277,0.16769 0.0521,0.31328 0.0521,0.32251 2.9e-4,0.009 0.19059,-0.0349 0.42467,-0.0961 1.18283,-0.30969 2.49046,-0.5609 3.81611,-0.73317 0.27149,-0.0353 0.49669,-0.0641 0.5008,-0.0641 0.004,0 0.0839,-0.1001 0.17828,-0.22235 0.99152,-1.28438 1.62897,-2.02694 2.50401,-2.91667 l 0.5028,-0.51082 -0.33653,-0.26642 c -1.91685,-1.52893 -3.75876,-2.33759 -5.11018,-2.26563 z m 6.56852,3.55168 -0.23237,0.22837 c -0.47189,0.46538 -1.28683,1.37181 -1.80088,2.00321 l -0.16226,0.20032 0.48077,-0.016 c 1.1957,-0.0368 1.84831,-0.0398 2.8165,-0.016 0.57228,0.014 1.04353,0.0202 1.04968,0.014 0.0364,-0.0364 -1.15235,-1.39079 -1.82893,-2.08334 l -0.32251,-0.33053 z m -0.0181,3.95033 c -0.97458,-3.4e-4 -1.94031,0.0295 -2.79047,0.0901 -0.2921,0.0208 -0.55653,0.038 -0.58894,0.038 -0.046,0 -0.0989,0.0572 -0.24038,0.26041 -0.70622,1.01368 -1.50704,2.31071 -2.14543,3.47556 -0.24025,0.43839 -0.96753,1.88893 -1.09175,2.17749 l -0.0461,0.10817 0.0822,0.1843 c 0.13899,0.30542 0.80079,1.62336 0.9956,1.98317 0.58774,1.08559 1.07317,1.8873 1.81691,3.00681 0.49878,0.75074 0.54879,0.81769 0.62499,0.83133 0.14125,0.0253 1.24815,0.0952 1.84897,0.11619 0.8462,0.0296 2.15146,0.0306 2.97275,0.002 0.70842,-0.0246 1.778,-0.0883 1.95913,-0.11619 0.0876,-0.0135 0.11093,-0.045 0.62501,-0.81931 0.7693405,-1.15871 1.3453305,-2.11667 1.9230805,-3.19912 0.23354,-0.43757 0.88429,-1.75389 0.95351,-1.92908 0.0307,-0.0775 0.0186,-0.10963 -0.35856,-0.87741 -0.8106,-1.65014 -1.5165,-2.87634 -2.5260505,-4.39102 -0.25616,-0.38432 -0.48599,-0.72336 -0.51081,-0.7532 -0.0418,-0.0504 -0.0902,-0.0573 -0.65505,-0.0961 -0.8899,-0.0612 -1.87398,-0.0918 -2.84856,-0.0921 z m -5.50881,0.44069 c -0.0119,-0.0119 -1.30965,0.21594 -1.76884,0.31051 -0.36253,0.0747 -1.12869,0.25807 -1.39022,0.33253 -0.0696,0.0198 -0.0694,0.0153 -0.004,0.25841 0.17058,0.63401 0.43456,1.43848 0.75121,2.28566 0.12145,0.32494 0.22714,0.59095 0.23638,0.59095 0.009,0 0.1185,-0.20771 0.24238,-0.46274 0.55183,-1.13624 0.85652,-1.67203 1.52845,-2.68631 0.22653,-0.34196 0.40875,-0.6249 0.40464,-0.62901 z m 11.0476705,0 c -0.004,0.004 0.12547,0.20652 0.28646,0.45073 0.74099,1.12412 0.98494,1.544 1.51042,2.59616 0.20047,0.40139 0.37225,0.72149 0.3826,0.71113 0.022,-0.0219 0.32829,-0.83335 0.47877,-1.26803 0.26147,-0.75525 0.57735,-1.80247 0.55089,-1.82893 -0.0218,-0.0218 -1.01317,-0.26276 -1.44031,-0.35055 -0.45768,-0.094 -1.75714,-0.3222 -1.76883,-0.31051 z m 4.6834896,1.16387 c -0.004,0.006 -0.0574,0.19307 -0.11819,0.41667 -0.31258,1.15179 -0.80226,2.55059 -1.3100896,3.75 l -0.15625,0.37259 0.22035,0.53085 c 0.2884396,0.69432 0.5969996,1.5182 0.8173096,2.18149 0.17429,0.52471 0.48308,1.57076 0.51682,1.7508 0.009,0.0505 0.0267,0.0922 0.038,0.0922 0.0509,0 0.96864,-0.38034 1.3722,-0.56892 0.76608,-0.35799 1.47416,-0.78039 2.06930998,-1.23197 0.34603,-0.26254 0.95315,-0.87312 1.15786,-1.16586 0.43257,-0.61862 0.60642002,-1.18789 0.55288002,-1.79888 -0.0222,-0.25277 -0.0733,-0.45767 -0.18430002,-0.72316 -0.49138,-1.17597 -1.95898998,-2.35099 -4.06649998,-3.25721 -0.43236,-0.18592 -0.89746,-0.36435 -0.90946,-0.34856 z m -20.4266801,0.012 c -0.0245,-0.0287 -0.7867,0.27323 -1.3161,0.52083 -2.3272,1.08843 -3.67467,2.41128 -3.84215,3.77404 -0.13581,1.10519 0.66695,2.3134 2.22756,3.35137 0.7223,0.48041 1.46073,0.85616 2.46595,1.26001 0.23758,0.0954 0.44051,0.17237 0.45272,0.16826 0.0122,-0.004 0.0799,-0.21176 0.14824,-0.46273 0.3005,-1.10342 0.76641,-2.43999 1.26802,-3.63582 0.0971,-0.23151 0.17629,-0.4325 0.17629,-0.44471 0,-0.0122 -0.0734,-0.19502 -0.16226,-0.40865 -0.49223,-1.1832 -0.99277,-2.61461 -1.26202,-3.60377 -0.0742,-0.27252 -0.14528,-0.50601 -0.15625,-0.51883 z m 10.20634,2.7484 c 0.47531,5e-5 0.87646,0.15205 1.20592,0.45673 0.37691,0.34853 0.55647,0.73369 0.57893,1.24399 0.0159,0.36084 -0.0315,0.58817 -0.19031,0.90544 -0.22106,0.44169 -0.64827,0.78174 -1.13982,0.90746 -0.36603,0.0936 -0.82971,0.056 -1.1859,-0.0982 -0.33739,-0.14602 -0.68468,-0.48165 -0.85337,-0.82332 -0.13433,-0.27218 -0.18755,-0.50296 -0.18829,-0.81931 -0.002,-0.98899 0.78185,-1.77291 1.77284,-1.77283 z m -7.68831,3.71594 c -0.0469,-4.8e-4 -0.70909,1.90312 -0.92348,2.65425 -0.11041,0.38663 -0.12919,0.47075 -0.10416,0.47075 0.006,0 0.23798,0.0571 0.51482,0.1262 0.60181,0.15003 1.30877,0.29433 2.10336,0.4307 0.32144,0.0552 0.58885,0.10123 0.59296,0.10215 0.0111,0.002 0.0108,0.003 -0.41868,-0.64905 -0.58278,-0.88443 -0.8597,-1.36091 -1.32611,-2.28966 -0.2333,-0.46457 -0.43051,-0.84527 -0.43871,-0.84535 z m 15.4026405,0.008 c -0.0288,0.002 -0.0894,0.12596 -0.3165,0.58895 -0.52958,1.0798 -0.75655,1.47323 -1.45634,2.53606 -0.22832,0.34678 -0.41465,0.63492 -0.41465,0.63903 0,0.0185 1.37622,-0.22325 1.881,-0.33054 0.40132,-0.0853 1.32328,-0.31298 1.34216,-0.33052 0.0171,-0.0159 -0.22909,-0.8623 -0.40466,-1.39023 -0.14193,-0.42676 -0.38817,-1.11014 -0.60696,-1.68269 -0.007,-0.0185 -0.0145,-0.0308 -0.024,-0.0301 z m -16.7387705,4.62541 c -0.0157,0.0157 -0.11513,0.68306 -0.16026,1.07772 -0.1769,1.54762 -0.0927,2.91668 0.24038,3.9323 0.40488,1.23442 1.14262,1.92081 2.19952,2.04326 0.27238,0.0317 0.41613,0.0321 0.71314,0.002 1.35462,-0.13702 2.95142,-0.92267 4.66346,-2.29567 l 0.25641,-0.20634 -0.44872,-0.45873 c -0.88206,-0.90127 -1.93396,-2.12547 -2.55609,-2.97676 -0.11957,-0.16362 -0.16856,-0.21199 -0.22836,-0.22235 -0.042,-0.007 -0.29839,-0.0427 -0.57091,-0.0782 -1.24347,-0.16184 -2.57524,-0.42079 -3.72196,-0.72316 -0.20915,-0.0551 -0.38354,-0.0972 -0.38661,-0.0942 z m 18.0348505,0.004 c -0.0226,0.007 -0.31563,0.0815 -0.65104,0.16627 -1.01959,0.25746 -2.31304,0.50261 -3.41747,0.64703 -0.27253,0.0357 -0.53005,0.0689 -0.57292,0.0761 -0.0497,0.008 -0.1001005,0.0437 -0.1382105,0.0961 -0.0329,0.0452 -0.19647,0.25815 -0.36459,0.47476 -0.76961,0.99161 -1.50309,1.83588 -2.34575,2.69632 l -0.38663,0.39463 0.27044,0.21634 c 1.68122,1.34599 3.3195505,2.15674 4.6113805,2.28165 1.12085,0.10838 1.93674,-0.24665 2.498,-1.08974 0.32714,-0.4914 0.54676,-1.10701 0.6710596,-1.88301 0.0754,-0.4704 0.10216,-0.86322 0.10216,-1.48438 2.2e-4,-0.78243 -0.0486,-1.40109 -0.1802896,-2.25561 -0.0457,-0.29681 -0.0613,-0.34761 -0.0961,-0.33653 z m -11.1818905,1.10177 c 7e-5,0.0165 0.73414,0.88574 0.98958,1.17186 0.14348,0.16071 0.46636,0.50745 0.71715,0.76923 l 0.45473,0.47677 0.0721,-0.054 c 0.0838,-0.062 0.68999,-0.69371 1.08173,-1.1278 0.2457,-0.27227 0.99345,-1.15513 1.03365,-1.21995 0.0104,-0.0164 -0.10154,-0.0188 -0.33052,-0.008 -0.19086,0.009 -1.0174,0.016 -1.83494,0.016 -0.81755,0 -1.64276,-0.007 -1.83494,-0.016 -0.19218,-0.009 -0.34858,-0.0131 -0.34855,-0.008 z"
       style="opacity:1;fill:#ffffff;fill-opacity:1;stroke:none;stroke-width:3.25;stroke-linecap:round;stroke-linejoin:round;stroke-miterlimit:4;stroke-dasharray:none;stroke-dashoffset:0;stroke-opacity:1" />
  </g>
</svg>
